<svg width="47" height="47" viewBox="0 0 47 47" fill="none" xmlns="http://www.w3.org/2000/svg">
<rect x="1.5" y="1.5" width="44" height="44" rx="8.5" fill="white" stroke="#16140F" stroke-width="3"/>
<path d="M33.6596 33H29.0276V19.656H24.8516V15.864H37.8356V19.656H33.6596V33Z" fill="#E68618"/>
<path d="M21.0562 27.792C21.0562 28.72 20.8162 29.6 20.3362 30.432C19.8722 31.264 19.1442 31.944 18.1522 32.472C17.1762 32.984 15.9042 33.24 14.3362 33.24C13.5522 33.24 12.8642 33.2 12.2722 33.12C11.6962 33.056 11.1522 32.944 10.6402 32.784C10.1282 32.624 9.60015 32.416 9.05615 32.16V28.032C9.98415 28.496 10.9202 28.856 11.8642 29.112C12.8082 29.352 13.6642 29.472 14.4322 29.472C14.8962 29.472 15.2722 29.416 15.5602 29.304C15.8482 29.192 16.0642 29.04 16.2082 28.848C16.3522 28.656 16.4242 28.44 16.4242 28.2C16.4242 27.896 16.3202 27.64 16.1122 27.432C15.9042 27.224 15.5762 27.008 15.1282 26.784C14.6802 26.56 14.0802 26.28 13.3282 25.944C12.6882 25.656 12.1122 25.352 11.6002 25.032C11.0882 24.712 10.6482 24.352 10.2802 23.952C9.92815 23.552 9.65615 23.088 9.46415 22.56C9.27215 22.016 9.17615 21.376 9.17615 20.64C9.17615 19.536 9.44815 18.616 9.99215 17.88C10.5362 17.128 11.2882 16.568 12.2482 16.2C13.2242 15.816 14.3522 15.624 15.6322 15.624C16.7522 15.624 17.7602 15.752 18.6562 16.008C19.5522 16.248 20.3522 16.528 21.0562 16.848L19.6402 20.424C18.9042 20.088 18.1762 19.824 17.4562 19.632C16.7522 19.424 16.0962 19.32 15.4882 19.32C15.0882 19.32 14.7602 19.368 14.5042 19.464C14.2482 19.56 14.0562 19.696 13.9282 19.872C13.8162 20.032 13.7602 20.216 13.7602 20.424C13.7602 20.696 13.8642 20.936 14.0722 21.144C14.2802 21.352 14.6242 21.584 15.1042 21.84C15.6002 22.08 16.2722 22.392 17.1202 22.776C17.9522 23.144 18.6562 23.552 19.2322 24C19.8242 24.432 20.2722 24.952 20.5762 25.56C20.8962 26.152 21.0562 26.896 21.0562 27.792Z" fill="#E68618"/>
</svg>
